<svg xmlns="http://www.w3.org/2000/svg" xmlns:xlink="http://www.w3.org/1999/xlink" width="40" zoomAndPan="magnify" viewBox="0 0 30 30.000001" height="40" preserveAspectRatio="xMidYMid meet" version="1.0"><defs><clipPath id="ed40a7de9e"><path d="M 2.117188 10.160156 L 10.828125 10.160156 L 10.828125 18.871094 L 2.117188 18.871094 Z M 2.117188 10.160156 " clip-rule="nonzero"/></clipPath><clipPath id="60aba1b581"><path d="M 6.472656 10.160156 C 4.066406 10.160156 2.117188 12.109375 2.117188 14.515625 C 2.117188 16.921875 4.066406 18.871094 6.472656 18.871094 C 8.875 18.871094 10.828125 16.921875 10.828125 14.515625 C 10.828125 12.109375 8.875 10.160156 6.472656 10.160156 Z M 6.472656 10.160156 " clip-rule="nonzero"/></clipPath><clipPath id="9d6341cefe"><path d="M 7 0.328125 L 29.117188 0.328125 L 29.117188 28.632812 L 7 28.632812 Z M 7 0.328125 " clip-rule="nonzero"/></clipPath><clipPath id="5ec6c587d2"><path d="M 0.808594 3 L 20 3 L 20 28.632812 L 0.808594 28.632812 Z M 0.808594 3 " clip-rule="nonzero"/></clipPath></defs><g clip-path="url(#ed40a7de9e)"><g clip-path="url(#60aba1b581)"><path fill="#003366" d="M 2.117188 10.160156 L 10.828125 10.160156 L 10.828125 18.871094 L 2.117188 18.871094 Z M 2.117188 10.160156 " fill-opacity="1" fill-rule="nonzero"/></g></g><g clip-path="url(#9d6341cefe)"><path fill="#003366" d="M 9.554688 0.328125 C 8.640625 0.328125 7.90625 1.0625 7.90625 1.976562 L 7.90625 2.332031 C 10.839844 6.285156 13.613281 7.558594 16.421875 9.414062 C 19.386719 10.898438 21.222656 13.039062 22.488281 15.515625 L 24.0625 14.660156 C 24.351562 14.503906 24.710938 14.609375 24.867188 14.894531 L 25.792969 16.601562 C 25.949219 16.886719 25.847656 17.246094 25.558594 17.40625 L 22.292969 19.179688 C 22.007812 19.335938 21.648438 19.230469 21.492188 18.945312 L 20.566406 17.238281 C 20.410156 16.953125 20.511719 16.59375 20.800781 16.4375 L 21.976562 15.796875 C 20.394531 14.429688 18.730469 13.152344 16.78125 12.191406 C 14.980469 16.863281 16.554688 23.46875 20.089844 28.699219 L 20.441406 28.699219 C 21.355469 28.699219 22.09375 27.96875 22.09375 27.054688 L 22.09375 21.609375 L 27.535156 21.609375 C 28.449219 21.609375 29.183594 20.871094 29.183594 19.957031 L 29.183594 9.070312 C 29.183594 8.15625 28.449219 7.421875 27.535156 7.421875 L 22.09375 7.421875 L 22.09375 1.976562 C 22.09375 1.0625 21.355469 0.328125 20.441406 0.328125 Z M 18.421875 3.90625 C 19.710938 3.90625 20.757812 4.949219 20.757812 6.238281 C 20.757812 7.527344 19.710938 8.570312 18.421875 8.570312 C 17.132812 8.570312 16.09375 7.527344 16.09375 6.238281 C 16.09375 4.949219 17.132812 3.90625 18.421875 3.90625 Z M 18.421875 3.90625 " fill-opacity="1" fill-rule="nonzero"/></g><g clip-path="url(#5ec6c587d2)"><path fill="#228b22" d="M 7.90625 3.21875 L 7.90625 7.421875 L 2.460938 7.421875 C 1.546875 7.421875 0.808594 8.15625 0.808594 9.070312 L 0.808594 19.957031 C 0.808594 20.871094 1.546875 21.609375 2.460938 21.609375 L 7.90625 21.609375 L 7.90625 27.054688 C 7.90625 27.96875 8.640625 28.699219 9.554688 28.699219 L 19.246094 28.699219 C 13.503906 23.925781 10.304688 16.894531 12.941406 10.578125 C 11.226562 8.238281 9.359375 6.421875 7.90625 3.21875 Z M 7.90625 3.21875 " fill-opacity="1" fill-rule="nonzero"/></g></svg>