<svg xmlns="http://www.w3.org/2000/svg" xmlns:xlink="http://www.w3.org/1999/xlink" width="500" zoomAndPan="magnify" viewBox="0 0 375 119.999999" height="160" preserveAspectRatio="xMidYMid meet" version="1.0"><defs><g/></defs><g fill="#003366" fill-opacity="1"><g transform="translate(5.03625, 87.609148)"><g><path d="M 40.21875 -50.6875 L 86.125 -50.6875 C 96.375 -50.6875 104.207031 -48.773438 109.625 -44.953125 C 115.050781 -41.128906 117.765625 -35.347656 117.765625 -27.609375 C 117.765625 -18.953125 114.945312 -12.1875 109.3125 -7.3125 C 103.6875 -2.4375 94.441406 0 81.578125 0 L 3.03125 0 L 19.796875 -21.6875 L 83.59375 -21.6875 C 86.707031 -21.6875 88.976562 -22.171875 90.40625 -23.140625 C 91.832031 -24.109375 92.546875 -25.679688 92.546875 -27.859375 C 92.546875 -31.898438 89.5625 -33.921875 83.59375 -33.921875 L 37.703125 -33.921875 C 26.859375 -33.921875 18.867188 -36.144531 13.734375 -40.59375 C 8.609375 -45.050781 6.046875 -50.894531 6.046875 -58.125 C 6.046875 -66.113281 8.882812 -72.484375 14.5625 -77.234375 C 20.238281 -81.984375 29.460938 -84.359375 42.234375 -84.359375 L 115.5 -84.359375 L 98.734375 -62.421875 L 40.21875 -62.421875 C 37.195312 -62.421875 34.945312 -62 33.46875 -61.15625 C 32 -60.3125 31.265625 -58.796875 31.265625 -56.609375 C 31.265625 -54.515625 32 -53.003906 33.46875 -52.078125 C 34.945312 -51.148438 37.195312 -50.6875 40.21875 -50.6875 Z M 40.21875 -50.6875 "/></g></g></g><g fill="#003366" fill-opacity="1"><g transform="translate(126.705455, 87.609148)"><g><path d="M 40.21875 -50.6875 L 86.125 -50.6875 C 96.375 -50.6875 104.207031 -48.773438 109.625 -44.953125 C 115.050781 -41.128906 117.765625 -35.347656 117.765625 -27.609375 C 117.765625 -18.953125 114.945312 -12.1875 109.3125 -7.3125 C 103.6875 -2.4375 94.441406 0 81.578125 0 L 3.03125 0 L 19.796875 -21.6875 L 83.59375 -21.6875 C 86.707031 -21.6875 88.976562 -22.171875 90.40625 -23.140625 C 91.832031 -24.109375 92.546875 -25.679688 92.546875 -27.859375 C 92.546875 -31.898438 89.5625 -33.921875 83.59375 -33.921875 L 37.703125 -33.921875 C 26.859375 -33.921875 18.867188 -36.144531 13.734375 -40.59375 C 8.609375 -45.050781 6.046875 -50.894531 6.046875 -58.125 C 6.046875 -66.113281 8.882812 -72.484375 14.5625 -77.234375 C 20.238281 -81.984375 29.460938 -84.359375 42.234375 -84.359375 L 115.5 -84.359375 L 98.734375 -62.421875 L 40.21875 -62.421875 C 37.195312 -62.421875 34.945312 -62 33.46875 -61.15625 C 32 -60.3125 31.265625 -58.796875 31.265625 -56.609375 C 31.265625 -54.515625 32 -53.003906 33.46875 -52.078125 C 34.945312 -51.148438 37.195312 -50.6875 40.21875 -50.6875 Z M 40.21875 -50.6875 "/></g></g></g><g fill="#003366" fill-opacity="1"><g transform="translate(248.374661, 87.609148)"><g><path d="M 119.28125 -52.703125 C 119.28125 -46.484375 117.640625 -41.039062 114.359375 -36.375 C 111.085938 -31.707031 106.359375 -28.070312 100.171875 -25.46875 C 93.992188 -22.863281 86.535156 -21.5625 77.796875 -21.5625 L 33.671875 -21.5625 L 33.671875 0 L 7.6875 0 L 7.6875 -43.125 L 80.328125 -43.125 C 84.359375 -43.125 87.488281 -44.023438 89.71875 -45.828125 C 91.945312 -47.640625 93.0625 -49.972656 93.0625 -52.828125 C 93.0625 -55.773438 91.945312 -58.109375 89.71875 -59.828125 C 87.488281 -61.554688 84.359375 -62.421875 80.328125 -62.421875 L 7.6875 -62.421875 L 24.96875 -84.359375 L 77.921875 -84.359375 C 86.671875 -84.359375 94.113281 -83.03125 100.25 -80.375 C 106.382812 -77.726562 111.085938 -74.03125 114.359375 -69.28125 C 117.640625 -64.539062 119.28125 -59.015625 119.28125 -52.703125 Z M 119.28125 -52.703125 "/></g></g></g><g fill="#003366" fill-opacity="1"><g transform="translate(7.127543, 116.249996)"><g><path d="M 8.8125 -18.40625 C 11.53125 -18.40625 13.921875 -17.726562 15.984375 -16.375 L 14.25 -12.765625 C 13.289062 -13.316406 12.265625 -13.769531 11.171875 -14.125 C 10.085938 -14.476562 9.171875 -14.65625 8.421875 -14.65625 C 7.085938 -14.65625 6.421875 -14.21875 6.421875 -13.34375 C 6.421875 -12.769531 6.75 -12.304688 7.40625 -11.953125 C 8.0625 -11.609375 8.863281 -11.3125 9.8125 -11.0625 C 10.757812 -10.8125 11.703125 -10.507812 12.640625 -10.15625 C 13.585938 -9.800781 14.390625 -9.222656 15.046875 -8.421875 C 15.710938 -7.628906 16.046875 -6.625 16.046875 -5.40625 C 16.046875 -3.65625 15.359375 -2.289062 13.984375 -1.3125 C 12.617188 -0.332031 10.878906 0.15625 8.765625 0.15625 C 7.253906 0.15625 5.757812 -0.101562 4.28125 -0.625 C 2.8125 -1.144531 1.53125 -1.851562 0.4375 -2.75 L 2.234375 -6.3125 C 3.148438 -5.519531 4.234375 -4.867188 5.484375 -4.359375 C 6.734375 -3.847656 7.84375 -3.59375 8.8125 -3.59375 C 9.5625 -3.59375 10.144531 -3.722656 10.5625 -3.984375 C 10.976562 -4.253906 11.1875 -4.648438 11.1875 -5.171875 C 11.1875 -5.671875 10.945312 -6.085938 10.46875 -6.421875 C 9.988281 -6.765625 9.394531 -7.019531 8.6875 -7.1875 C 7.976562 -7.351562 7.207031 -7.570312 6.375 -7.84375 C 5.539062 -8.125 4.765625 -8.425781 4.046875 -8.75 C 3.335938 -9.082031 2.742188 -9.609375 2.265625 -10.328125 C 1.796875 -11.046875 1.5625 -11.910156 1.5625 -12.921875 C 1.5625 -14.585938 2.222656 -15.914062 3.546875 -16.90625 C 4.867188 -17.90625 6.625 -18.40625 8.8125 -18.40625 Z M 8.8125 -18.40625 "/></g></g></g><g fill="#003366" fill-opacity="1"><g transform="translate(25.816924, 116.249996)"><g><path d="M 20.515625 -14.21875 C 22.054688 -14.21875 23.28125 -13.726562 24.1875 -12.75 C 25.101562 -11.769531 25.5625 -10.46875 25.5625 -8.84375 L 25.5625 0 L 21.09375 0 L 21.09375 -7.59375 C 21.09375 -8.425781 20.875 -9.078125 20.4375 -9.546875 C 20 -10.023438 19.410156 -10.265625 18.671875 -10.265625 C 17.835938 -10.253906 17.171875 -9.9375 16.671875 -9.3125 C 16.179688 -8.695312 15.9375 -7.90625 15.9375 -6.9375 L 15.9375 0 L 11.4375 0 L 11.4375 -7.59375 C 11.4375 -8.425781 11.222656 -9.078125 10.796875 -9.546875 C 10.378906 -10.023438 9.796875 -10.265625 9.046875 -10.265625 C 8.203125 -10.253906 7.523438 -9.9375 7.015625 -9.3125 C 6.515625 -8.6875 6.265625 -7.894531 6.265625 -6.9375 L 6.265625 0 L 1.796875 0 L 1.796875 -14.015625 L 6.265625 -14.015625 L 6.265625 -11.703125 C 7.222656 -13.347656 8.765625 -14.1875 10.890625 -14.21875 C 12.015625 -14.21875 12.988281 -13.9375 13.8125 -13.375 C 14.632812 -12.8125 15.222656 -12.035156 15.578125 -11.046875 C 16.492188 -13.128906 18.140625 -14.1875 20.515625 -14.21875 Z M 20.515625 -14.21875 "/></g></g></g><g fill="#003366" fill-opacity="1"><g transform="translate(54.721249, 116.249996)"><g><path d="M 8.09375 -14.21875 C 10.007812 -14.21875 11.5 -13.769531 12.5625 -12.875 C 13.632812 -11.988281 14.179688 -10.75 14.203125 -9.15625 L 14.203125 0 L 9.796875 0 L 9.796875 -1.609375 C 8.878906 -0.398438 7.453125 0.203125 5.515625 0.203125 C 4.035156 0.203125 2.863281 -0.203125 2 -1.015625 C 1.132812 -1.828125 0.703125 -2.882812 0.703125 -4.1875 C 0.703125 -5.519531 1.164062 -6.550781 2.09375 -7.28125 C 3.019531 -8.019531 4.347656 -8.398438 6.078125 -8.421875 L 9.78125 -8.421875 L 9.78125 -8.625 C 9.78125 -9.320312 9.546875 -9.863281 9.078125 -10.25 C 8.617188 -10.644531 7.941406 -10.84375 7.046875 -10.84375 C 5.773438 -10.84375 4.378906 -10.453125 2.859375 -9.671875 L 1.59375 -12.640625 C 3.851562 -13.691406 6.019531 -14.21875 8.09375 -14.21875 Z M 6.890625 -2.828125 C 7.597656 -2.828125 8.21875 -3.003906 8.75 -3.359375 C 9.289062 -3.722656 9.632812 -4.191406 9.78125 -4.765625 L 9.78125 -6 L 6.9375 -6 C 5.582031 -6 4.90625 -5.5 4.90625 -4.5 C 4.90625 -3.976562 5.078125 -3.566406 5.421875 -3.265625 C 5.773438 -2.972656 6.265625 -2.828125 6.890625 -2.828125 Z M 6.890625 -2.828125 "/></g></g></g><g fill="#003366" fill-opacity="1"><g transform="translate(72.266974, 116.249996)"><g><path d="M 6.296875 -14.015625 L 6.296875 -11.640625 C 7.285156 -13.328125 8.800781 -14.1875 10.84375 -14.21875 L 10.84375 -10.171875 C 9.5625 -10.285156 8.507812 -10.066406 7.6875 -9.515625 C 6.875 -8.972656 6.410156 -8.203125 6.296875 -7.203125 L 6.296875 0 L 1.796875 0 L 1.796875 -14.015625 Z M 6.296875 -14.015625 "/></g></g></g><g fill="#003366" fill-opacity="1"><g transform="translate(85.316042, 116.249996)"><g><path d="M 9.953125 -3.875 L 10.84375 -0.75 C 9.75 -0.113281 8.5 0.203125 7.09375 0.203125 C 5.707031 0.203125 4.582031 -0.179688 3.71875 -0.953125 C 2.863281 -1.722656 2.4375 -2.816406 2.4375 -4.234375 L 2.4375 -10.421875 L 0.5 -10.421875 L 0.5 -13.359375 L 2.4375 -13.359375 L 2.4375 -17.265625 L 6.921875 -17.265625 L 6.921875 -13.390625 L 10.578125 -13.390625 L 10.578125 -10.421875 L 6.921875 -10.421875 L 6.921875 -4.9375 C 6.921875 -4.40625 7.023438 -4.007812 7.234375 -3.75 C 7.453125 -3.5 7.78125 -3.382812 8.21875 -3.40625 C 8.632812 -3.40625 9.210938 -3.5625 9.953125 -3.875 Z M 9.953125 -3.875 "/></g></g></g><g fill="#003366" fill-opacity="1"><g transform="translate(98.573049, 116.249996)"><g/></g></g><g fill="#003366" fill-opacity="1"><g transform="translate(106.553637, 116.249996)"><g><path d="M 8.8125 -18.40625 C 11.53125 -18.40625 13.921875 -17.726562 15.984375 -16.375 L 14.25 -12.765625 C 13.289062 -13.316406 12.265625 -13.769531 11.171875 -14.125 C 10.085938 -14.476562 9.171875 -14.65625 8.421875 -14.65625 C 7.085938 -14.65625 6.421875 -14.21875 6.421875 -13.34375 C 6.421875 -12.769531 6.75 -12.304688 7.40625 -11.953125 C 8.0625 -11.609375 8.863281 -11.3125 9.8125 -11.0625 C 10.757812 -10.8125 11.703125 -10.507812 12.640625 -10.15625 C 13.585938 -9.800781 14.390625 -9.222656 15.046875 -8.421875 C 15.710938 -7.628906 16.046875 -6.625 16.046875 -5.40625 C 16.046875 -3.65625 15.359375 -2.289062 13.984375 -1.3125 C 12.617188 -0.332031 10.878906 0.15625 8.765625 0.15625 C 7.253906 0.15625 5.757812 -0.101562 4.28125 -0.625 C 2.8125 -1.144531 1.53125 -1.851562 0.4375 -2.75 L 2.234375 -6.3125 C 3.148438 -5.519531 4.234375 -4.867188 5.484375 -4.359375 C 6.734375 -3.847656 7.84375 -3.59375 8.8125 -3.59375 C 9.5625 -3.59375 10.144531 -3.722656 10.5625 -3.984375 C 10.976562 -4.253906 11.1875 -4.648438 11.1875 -5.171875 C 11.1875 -5.671875 10.945312 -6.085938 10.46875 -6.421875 C 9.988281 -6.765625 9.394531 -7.019531 8.6875 -7.1875 C 7.976562 -7.351562 7.207031 -7.570312 6.375 -7.84375 C 5.539062 -8.125 4.765625 -8.425781 4.046875 -8.75 C 3.335938 -9.082031 2.742188 -9.609375 2.265625 -10.328125 C 1.796875 -11.046875 1.5625 -11.910156 1.5625 -12.921875 C 1.5625 -14.585938 2.222656 -15.914062 3.546875 -16.90625 C 4.867188 -17.90625 6.625 -18.40625 8.8125 -18.40625 Z M 8.8125 -18.40625 "/></g></g></g><g fill="#003366" fill-opacity="1"><g transform="translate(125.243017, 116.249996)"><g><path d="M 8.296875 -14.171875 C 10.578125 -14.171875 12.421875 -13.515625 13.828125 -12.203125 C 15.234375 -10.898438 15.9375 -9.171875 15.9375 -7.015625 C 15.9375 -4.867188 15.234375 -3.132812 13.828125 -1.8125 C 12.421875 -0.5 10.578125 0.15625 8.296875 0.15625 C 5.992188 0.15625 4.140625 -0.5 2.734375 -1.8125 C 1.328125 -3.132812 0.625 -4.867188 0.625 -7.015625 C 0.625 -9.171875 1.328125 -10.898438 2.734375 -12.203125 C 4.140625 -13.515625 5.992188 -14.171875 8.296875 -14.171875 Z M 8.296875 -10.609375 C 7.359375 -10.609375 6.597656 -10.269531 6.015625 -9.59375 C 5.429688 -8.914062 5.140625 -8.039062 5.140625 -6.96875 C 5.140625 -5.875 5.429688 -4.992188 6.015625 -4.328125 C 6.597656 -3.660156 7.359375 -3.328125 8.296875 -3.328125 C 9.210938 -3.328125 9.957031 -3.660156 10.53125 -4.328125 C 11.113281 -4.992188 11.40625 -5.875 11.40625 -6.96875 C 11.40625 -8.039062 11.113281 -8.914062 10.53125 -9.59375 C 9.957031 -10.269531 9.210938 -10.609375 8.296875 -10.609375 Z M 8.296875 -10.609375 "/></g></g></g><g fill="#003366" fill-opacity="1"><g transform="translate(143.750447, 116.249996)"><g><path d="M 6.421875 0 L 1.921875 0 L 1.921875 -19.296875 L 6.421875 -19.296875 Z M 6.421875 0 "/></g></g></g><g fill="#003366" fill-opacity="1"><g transform="translate(154.044338, 116.249996)"><g><path d="M 15.4375 -14.015625 L 15.4375 0 L 10.953125 0 L 10.953125 -2.3125 C 9.992188 -0.644531 8.472656 0.1875 6.390625 0.1875 C 4.867188 0.1875 3.648438 -0.296875 2.734375 -1.265625 C 1.828125 -2.242188 1.375 -3.546875 1.375 -5.171875 L 1.375 -14.015625 L 5.875 -14.015625 L 5.875 -6.453125 C 5.875 -5.617188 6.085938 -4.960938 6.515625 -4.484375 C 6.941406 -4.003906 7.507812 -3.765625 8.21875 -3.765625 C 9.0625 -3.785156 9.726562 -4.101562 10.21875 -4.71875 C 10.707031 -5.332031 10.953125 -6.125 10.953125 -7.09375 L 10.953125 -14.015625 Z M 15.4375 -14.015625 "/></g></g></g><g fill="#003366" fill-opacity="1"><g transform="translate(173.227565, 116.249996)"><g><path d="M 9.953125 -3.875 L 10.84375 -0.75 C 9.75 -0.113281 8.5 0.203125 7.09375 0.203125 C 5.707031 0.203125 4.582031 -0.179688 3.71875 -0.953125 C 2.863281 -1.722656 2.4375 -2.816406 2.4375 -4.234375 L 2.4375 -10.421875 L 0.5 -10.421875 L 0.5 -13.359375 L 2.4375 -13.359375 L 2.4375 -17.265625 L 6.921875 -17.265625 L 6.921875 -13.390625 L 10.578125 -13.390625 L 10.578125 -10.421875 L 6.921875 -10.421875 L 6.921875 -4.9375 C 6.921875 -4.40625 7.023438 -4.007812 7.234375 -3.75 C 7.453125 -3.5 7.78125 -3.382812 8.21875 -3.40625 C 8.632812 -3.40625 9.210938 -3.5625 9.953125 -3.875 Z M 9.953125 -3.875 "/></g></g></g><g fill="#003366" fill-opacity="1"><g transform="translate(186.484572, 116.249996)"><g><path d="M 2.34375 -19.734375 C 2.789062 -20.179688 3.359375 -20.40625 4.046875 -20.40625 C 4.742188 -20.40625 5.3125 -20.179688 5.75 -19.734375 C 6.195312 -19.296875 6.421875 -18.726562 6.421875 -18.03125 C 6.421875 -17.34375 6.195312 -16.773438 5.75 -16.328125 C 5.3125 -15.878906 4.742188 -15.65625 4.046875 -15.65625 C 3.359375 -15.65625 2.789062 -15.878906 2.34375 -16.328125 C 1.90625 -16.773438 1.6875 -17.34375 1.6875 -18.03125 C 1.6875 -18.726562 1.90625 -19.296875 2.34375 -19.734375 Z M 6.265625 0 L 1.796875 0 L 1.796875 -14.015625 L 6.265625 -14.015625 Z M 6.265625 0 "/></g></g></g><g fill="#003366" fill-opacity="1"><g transform="translate(196.518545, 116.249996)"><g><path d="M 8.296875 -14.171875 C 10.578125 -14.171875 12.421875 -13.515625 13.828125 -12.203125 C 15.234375 -10.898438 15.9375 -9.171875 15.9375 -7.015625 C 15.9375 -4.867188 15.234375 -3.132812 13.828125 -1.8125 C 12.421875 -0.5 10.578125 0.15625 8.296875 0.15625 C 5.992188 0.15625 4.140625 -0.5 2.734375 -1.8125 C 1.328125 -3.132812 0.625 -4.867188 0.625 -7.015625 C 0.625 -9.171875 1.328125 -10.898438 2.734375 -12.203125 C 4.140625 -13.515625 5.992188 -14.171875 8.296875 -14.171875 Z M 8.296875 -10.609375 C 7.359375 -10.609375 6.597656 -10.269531 6.015625 -9.59375 C 5.429688 -8.914062 5.140625 -8.039062 5.140625 -6.96875 C 5.140625 -5.875 5.429688 -4.992188 6.015625 -4.328125 C 6.597656 -3.660156 7.359375 -3.328125 8.296875 -3.328125 C 9.210938 -3.328125 9.957031 -3.660156 10.53125 -4.328125 C 11.113281 -4.992188 11.40625 -5.875 11.40625 -6.96875 C 11.40625 -8.039062 11.113281 -8.914062 10.53125 -9.59375 C 9.957031 -10.269531 9.210938 -10.609375 8.296875 -10.609375 Z M 8.296875 -10.609375 "/></g></g></g><g fill="#003366" fill-opacity="1"><g transform="translate(215.025986, 116.249996)"><g><path d="M 10.96875 -14.21875 C 12.507812 -14.21875 13.75 -13.726562 14.6875 -12.75 C 15.625 -11.769531 16.09375 -10.46875 16.09375 -8.84375 L 16.09375 0 L 11.625 0 L 11.625 -7.59375 C 11.625 -8.40625 11.398438 -9.050781 10.953125 -9.53125 C 10.515625 -10.007812 9.914062 -10.25 9.15625 -10.25 C 8.351562 -10.25 7.695312 -9.988281 7.1875 -9.46875 C 6.675781 -8.945312 6.378906 -8.257812 6.296875 -7.40625 L 6.296875 0 L 1.796875 0 L 1.796875 -14.015625 L 6.296875 -14.015625 L 6.296875 -11.71875 C 7.285156 -13.351562 8.84375 -14.1875 10.96875 -14.21875 Z M 10.96875 -14.21875 "/></g></g></g><g fill="#003366" fill-opacity="1"><g transform="translate(234.469154, 116.249996)"><g><path d="M 6.8125 -14.21875 C 8.875 -14.21875 10.796875 -13.691406 12.578125 -12.640625 L 11.046875 -9.71875 C 9.316406 -10.65625 7.84375 -11.125 6.625 -11.125 C 5.707031 -11.125 5.25 -10.804688 5.25 -10.171875 C 5.25 -9.816406 5.5 -9.519531 6 -9.28125 C 6.507812 -9.050781 7.125 -8.84375 7.84375 -8.65625 C 8.570312 -8.46875 9.296875 -8.226562 10.015625 -7.9375 C 10.742188 -7.65625 11.359375 -7.203125 11.859375 -6.578125 C 12.359375 -5.953125 12.609375 -5.191406 12.609375 -4.296875 C 12.609375 -2.890625 12.0625 -1.789062 10.96875 -1 C 9.875 -0.207031 8.453125 0.1875 6.703125 0.1875 C 4.222656 0.1875 2.128906 -0.472656 0.421875 -1.796875 L 1.84375 -4.65625 C 3.488281 -3.488281 5.144531 -2.90625 6.8125 -2.90625 C 7.832031 -2.90625 8.34375 -3.226562 8.34375 -3.875 C 8.34375 -4.238281 8.09375 -4.539062 7.59375 -4.78125 C 7.101562 -5.019531 6.503906 -5.234375 5.796875 -5.421875 C 5.085938 -5.617188 4.375 -5.859375 3.65625 -6.140625 C 2.945312 -6.429688 2.347656 -6.878906 1.859375 -7.484375 C 1.367188 -8.085938 1.125 -8.851562 1.125 -9.78125 C 1.125 -11.175781 1.648438 -12.265625 2.703125 -13.046875 C 3.765625 -13.828125 5.132812 -14.21875 6.8125 -14.21875 Z M 6.8125 -14.21875 "/></g></g></g><g fill="#003366" fill-opacity="1"><g transform="translate(249.753562, 116.249996)"><g/></g></g><g fill="#003366" fill-opacity="1"><g transform="translate(257.734144, 116.249996)"><g><path d="M 1.8125 -18.203125 L 9.75 -18.203125 C 12.070312 -18.203125 13.875 -17.648438 15.15625 -16.546875 C 16.4375 -15.441406 17.078125 -13.878906 17.078125 -11.859375 C 17.078125 -9.722656 16.4375 -8.066406 15.15625 -6.890625 C 13.875 -5.710938 12.070312 -5.125 9.75 -5.125 L 6.453125 -5.125 L 6.453125 0 L 1.8125 0 Z M 6.453125 -14.5625 L 6.453125 -8.765625 L 9.515625 -8.765625 C 10.535156 -8.765625 11.320312 -9.015625 11.875 -9.515625 C 12.4375 -10.015625 12.71875 -10.742188 12.71875 -11.703125 C 12.71875 -12.640625 12.4375 -13.347656 11.875 -13.828125 C 11.320312 -14.316406 10.535156 -14.5625 9.515625 -14.5625 Z M 6.453125 -14.5625 "/></g></g></g><g fill="#003366" fill-opacity="1"><g transform="translate(277.35925, 116.249996)"><g><path d="M 8.09375 -14.21875 C 10.007812 -14.21875 11.5 -13.769531 12.5625 -12.875 C 13.632812 -11.988281 14.179688 -10.75 14.203125 -9.15625 L 14.203125 0 L 9.796875 0 L 9.796875 -1.609375 C 8.878906 -0.398438 7.453125 0.203125 5.515625 0.203125 C 4.035156 0.203125 2.863281 -0.203125 2 -1.015625 C 1.132812 -1.828125 0.703125 -2.882812 0.703125 -4.1875 C 0.703125 -5.519531 1.164062 -6.550781 2.09375 -7.28125 C 3.019531 -8.019531 4.347656 -8.398438 6.078125 -8.421875 L 9.78125 -8.421875 L 9.78125 -8.625 C 9.78125 -9.320312 9.546875 -9.863281 9.078125 -10.25 C 8.617188 -10.644531 7.941406 -10.84375 7.046875 -10.84375 C 5.773438 -10.84375 4.378906 -10.453125 2.859375 -9.671875 L 1.59375 -12.640625 C 3.851562 -13.691406 6.019531 -14.21875 8.09375 -14.21875 Z M 6.890625 -2.828125 C 7.597656 -2.828125 8.21875 -3.003906 8.75 -3.359375 C 9.289062 -3.722656 9.632812 -4.191406 9.78125 -4.765625 L 9.78125 -6 L 6.9375 -6 C 5.582031 -6 4.90625 -5.5 4.90625 -4.5 C 4.90625 -3.976562 5.078125 -3.566406 5.421875 -3.265625 C 5.773438 -2.972656 6.265625 -2.828125 6.890625 -2.828125 Z M 6.890625 -2.828125 "/></g></g></g><g fill="#003366" fill-opacity="1"><g transform="translate(294.904988, 116.249996)"><g><path d="M 6.296875 -14.015625 L 6.296875 -11.640625 C 7.285156 -13.328125 8.800781 -14.1875 10.84375 -14.21875 L 10.84375 -10.171875 C 9.5625 -10.285156 8.507812 -10.066406 7.6875 -9.515625 C 6.875 -8.972656 6.410156 -8.203125 6.296875 -7.203125 L 6.296875 0 L 1.796875 0 L 1.796875 -14.015625 Z M 6.296875 -14.015625 "/></g></g></g><g fill="#003366" fill-opacity="1"><g transform="translate(307.954067, 116.249996)"><g><path d="M 9.953125 -3.875 L 10.84375 -0.75 C 9.75 -0.113281 8.5 0.203125 7.09375 0.203125 C 5.707031 0.203125 4.582031 -0.179688 3.71875 -0.953125 C 2.863281 -1.722656 2.4375 -2.816406 2.4375 -4.234375 L 2.4375 -10.421875 L 0.5 -10.421875 L 0.5 -13.359375 L 2.4375 -13.359375 L 2.4375 -17.265625 L 6.921875 -17.265625 L 6.921875 -13.390625 L 10.578125 -13.390625 L 10.578125 -10.421875 L 6.921875 -10.421875 L 6.921875 -4.9375 C 6.921875 -4.40625 7.023438 -4.007812 7.234375 -3.75 C 7.453125 -3.5 7.78125 -3.382812 8.21875 -3.40625 C 8.632812 -3.40625 9.210938 -3.5625 9.953125 -3.875 Z M 9.953125 -3.875 "/></g></g></g><g fill="#003366" fill-opacity="1"><g transform="translate(321.211085, 116.249996)"><g><path d="M 10.96875 -14.21875 C 12.507812 -14.21875 13.75 -13.726562 14.6875 -12.75 C 15.625 -11.769531 16.09375 -10.46875 16.09375 -8.84375 L 16.09375 0 L 11.625 0 L 11.625 -7.59375 C 11.625 -8.40625 11.398438 -9.050781 10.953125 -9.53125 C 10.515625 -10.007812 9.914062 -10.25 9.15625 -10.25 C 8.351562 -10.25 7.695312 -9.988281 7.1875 -9.46875 C 6.675781 -8.945312 6.378906 -8.257812 6.296875 -7.40625 L 6.296875 0 L 1.796875 0 L 1.796875 -14.015625 L 6.296875 -14.015625 L 6.296875 -11.71875 C 7.285156 -13.351562 8.84375 -14.1875 10.96875 -14.21875 Z M 10.96875 -14.21875 "/></g></g></g><g fill="#003366" fill-opacity="1"><g transform="translate(340.654252, 116.249996)"><g><path d="M 7.9375 -14.171875 C 10.351562 -14.171875 12.171875 -13.425781 13.390625 -11.9375 C 14.617188 -10.445312 15.15625 -8.398438 15 -5.796875 L 5.140625 -5.796875 C 5.367188 -4.960938 5.769531 -4.320312 6.34375 -3.875 C 6.914062 -3.425781 7.617188 -3.203125 8.453125 -3.203125 C 9.734375 -3.203125 10.847656 -3.675781 11.796875 -4.625 L 14.171875 -2.3125 C 12.660156 -0.664062 10.625 0.15625 8.0625 0.15625 C 5.789062 0.15625 3.984375 -0.492188 2.640625 -1.796875 C 1.296875 -3.097656 0.625 -4.820312 0.625 -6.96875 C 0.625 -9.132812 1.296875 -10.875 2.640625 -12.1875 C 3.984375 -13.507812 5.75 -14.171875 7.9375 -14.171875 Z M 5.0625 -8.21875 L 10.6875 -8.21875 C 10.6875 -9.0625 10.4375 -9.742188 9.9375 -10.265625 C 9.445312 -10.785156 8.796875 -11.046875 7.984375 -11.046875 C 7.222656 -11.046875 6.582031 -10.789062 6.0625 -10.28125 C 5.539062 -9.769531 5.207031 -9.082031 5.0625 -8.21875 Z M 5.0625 -8.21875 "/></g></g></g><g fill="#003366" fill-opacity="1"><g transform="translate(358.251969, 116.249996)"><g><path d="M 6.296875 -14.015625 L 6.296875 -11.640625 C 7.285156 -13.328125 8.800781 -14.1875 10.84375 -14.21875 L 10.84375 -10.171875 C 9.5625 -10.285156 8.507812 -10.066406 7.6875 -9.515625 C 6.875 -8.972656 6.410156 -8.203125 6.296875 -7.203125 L 6.296875 0 L 1.796875 0 L 1.796875 -14.015625 Z M 6.296875 -14.015625 "/></g></g></g></svg>