<svg xmlns="http://www.w3.org/2000/svg" xmlns:xlink="http://www.w3.org/1999/xlink" width="1000" zoomAndPan="magnify" viewBox="0 0 750 749.999995" height="1000" preserveAspectRatio="xMidYMid meet" version="1.0"><path fill="#003366" d="M 231.097656 0 C 206.9375 0 187.527344 19.464844 187.527344 43.625 L 187.527344 53.039062 C 265.074219 157.464844 338.355469 191.117188 412.65625 240.164062 C 490.972656 279.441406 539.496094 336.0625 573.03125 401.460938 L 614.648438 378.847656 C 622.253906 374.703125 631.742188 377.496094 635.886719 385.101562 L 660.339844 430.164062 C 664.484375 437.765625 661.746094 447.257812 654.140625 451.402344 L 567.867188 498.355469 C 560.261719 502.5 550.773438 499.703125 546.628906 492.097656 L 522.175781 447.039062 C 518.03125 439.433594 520.769531 429.945312 528.375 425.800781 L 559.429688 408.925781 C 517.605469 372.804688 473.644531 339.050781 422.183594 313.636719 C 374.570312 437.097656 416.15625 611.726562 509.546875 750 L 518.902344 750 C 543.0625 750 562.527344 730.589844 562.527344 706.433594 L 562.527344 562.527344 L 706.433594 562.527344 C 730.589844 562.527344 750 543.0625 750 518.902344 L 750 231.097656 C 750 206.9375 730.589844 187.527344 706.433594 187.527344 L 562.527344 187.527344 L 562.527344 43.625 C 562.527344 19.464844 543.0625 0 518.902344 0 Z M 465.519531 94.652344 C 499.5625 94.652344 527.285156 122.203125 527.285156 156.246094 C 527.285156 190.289062 499.5625 217.894531 465.519531 217.894531 C 431.480469 217.894531 403.929688 190.289062 403.929688 156.246094 C 403.929688 122.203125 431.480469 94.652344 465.519531 94.652344 Z M 465.519531 94.652344 " fill-opacity="1" fill-rule="nonzero"/><path fill="#228b22" d="M 187.527344 76.457031 L 187.527344 187.527344 L 43.625 187.527344 C 19.464844 187.527344 0 206.9375 0 231.097656 L 0 518.902344 C 0 543.0625 19.464844 562.527344 43.625 562.527344 L 187.527344 562.527344 L 187.527344 706.433594 C 187.527344 730.589844 206.9375 750 231.097656 750 L 487.277344 750 C 335.5625 623.796875 250.9375 437.957031 320.640625 270.933594 C 275.332031 209.15625 225.957031 161.085938 187.527344 76.457031 Z M 187.527344 76.457031 " fill-opacity="1" fill-rule="nonzero"/></svg>