<svg xmlns="http://www.w3.org/2000/svg" xmlns:xlink="http://www.w3.org/1999/xlink" width="40" zoomAndPan="magnify" viewBox="0 0 30 30.000001" height="40" preserveAspectRatio="xMidYMid meet" version="1.0"><defs><clipPath id="829c5a7d31"><path d="M 2.191406 0 L 27.59375 0 L 27.59375 29.03125 L 2.191406 29.03125 Z M 2.191406 0 " clip-rule="nonzero"/></clipPath></defs><g clip-path="url(#829c5a7d31)"><path fill="#003366" d="M 8.269531 26.503906 L 8.78125 27.308594 L 6.082031 29.027344 L 2.1875 22.921875 L 4.886719 21.203125 L 8.257812 26.492188 C 8.261719 26.492188 8.261719 26.492188 8.261719 26.496094 C 8.261719 26.496094 8.265625 26.5 8.269531 26.503906 Z M 23.9375 20.320312 L 19.542969 23.136719 C 19.429688 23.675781 19.109375 24.152344 18.664062 24.433594 C 18.375 24.621094 18.042969 24.714844 17.695312 24.714844 C 17.480469 24.714844 17.257812 24.675781 17.035156 24.601562 L 13.867188 23.554688 C 13.644531 23.480469 13.519531 23.238281 13.59375 23.011719 C 13.667969 22.789062 13.914062 22.664062 14.136719 22.742188 L 17.304688 23.789062 C 17.644531 23.898438 17.945312 23.875 18.203125 23.710938 C 18.480469 23.53125 18.679688 23.199219 18.722656 22.839844 C 18.722656 22.824219 18.726562 22.808594 18.730469 22.792969 C 18.746094 22.320312 18.4375 21.875 17.984375 21.726562 L 11.035156 19.425781 C 10.359375 19.203125 9.707031 19.277344 9.101562 19.644531 L 6.082031 21.484375 L 8.765625 25.683594 L 10.253906 24.777344 C 10.363281 24.714844 10.492188 24.699219 10.613281 24.738281 L 16.335938 26.628906 C 17.105469 26.886719 17.871094 26.789062 18.554688 26.351562 L 25.109375 22.148438 C 25.613281 21.824219 25.761719 21.152344 25.441406 20.644531 C 25.117188 20.140625 24.441406 19.996094 23.9375 20.320312 Z M 27.808594 13.171875 C 27.808594 13.746094 27.585938 14.289062 27.179688 14.691406 L 23.835938 18.039062 L 20.488281 14.691406 C 19.652344 13.855469 19.652344 12.488281 20.488281 11.648438 C 20.890625 11.246094 21.433594 11.023438 22.007812 11.023438 C 22.585938 11.023438 23.128906 11.246094 23.53125 11.648438 C 23.699219 11.816406 23.96875 11.816406 24.136719 11.648438 C 24.976562 10.8125 26.34375 10.8125 27.179688 11.648438 C 27.585938 12.054688 27.808594 12.59375 27.808594 13.171875 Z M 25.601562 14.109375 C 25.601562 13.871094 25.40625 13.679688 25.171875 13.679688 L 24.265625 13.679688 L 24.265625 12.773438 C 24.265625 12.535156 24.070312 12.34375 23.835938 12.34375 C 23.597656 12.34375 23.40625 12.535156 23.40625 12.773438 L 23.40625 13.679688 L 22.5 13.679688 C 22.261719 13.679688 22.070312 13.871094 22.070312 14.109375 C 22.070312 14.347656 22.261719 14.539062 22.5 14.539062 L 23.40625 14.539062 L 23.40625 15.441406 C 23.40625 15.679688 23.597656 15.871094 23.835938 15.871094 C 24.070312 15.871094 24.265625 15.679688 24.265625 15.441406 L 24.265625 14.539062 L 25.171875 14.539062 C 25.40625 14.539062 25.601562 14.347656 25.601562 14.109375 Z M 11.304688 18.609375 L 18.253906 20.910156 C 18.855469 21.109375 19.304688 21.574219 19.492188 22.148438 L 23.40625 19.640625 L 23.40625 18.824219 L 19.882812 15.300781 C 18.707031 14.128906 18.707031 12.21875 19.882812 11.042969 C 19.917969 11.007812 19.953125 10.972656 19.992188 10.9375 C 19.445312 10.746094 18.871094 10.644531 18.292969 10.644531 L 14.328125 10.644531 C 11.507812 10.644531 9.210938 12.9375 9.210938 15.757812 L 9.210938 18.640625 C 9.878906 18.386719 10.59375 18.375 11.304688 18.609375 Z M 16.308594 9.785156 C 19.003906 9.785156 21.199219 7.59375 21.199219 4.894531 C 21.199219 2.203125 19.003906 0.0078125 16.308594 0.0078125 C 13.613281 0.0078125 11.421875 2.203125 11.421875 4.894531 C 11.421875 7.59375 13.613281 9.785156 16.308594 9.785156 Z M 16.308594 9.785156 " fill-opacity="1" fill-rule="nonzero"/></g></svg>