<svg xmlns="http://www.w3.org/2000/svg" xmlns:xlink="http://www.w3.org/1999/xlink" width="40" zoomAndPan="magnify" viewBox="0 0 30 30.000001" height="40" preserveAspectRatio="xMidYMid meet" version="1.0"><defs><clipPath id="a2fb3fb46a"><path d="M 4 10 L 29.515625 10 L 29.515625 21 L 4 21 Z M 4 10 " clip-rule="nonzero"/></clipPath><clipPath id="6e92b4380d"><path d="M 0.484375 9 L 29.515625 9 L 29.515625 27.488281 L 0.484375 27.488281 Z M 0.484375 9 " clip-rule="nonzero"/></clipPath><clipPath id="498ded3b21"><path d="M 17 1.359375 L 28 1.359375 L 28 11 L 17 11 Z M 17 1.359375 " clip-rule="nonzero"/></clipPath></defs><g clip-path="url(#a2fb3fb46a)"><path fill="#003366" d="M 5.730469 11.222656 C 8.3125 13.882812 11.679688 17.78125 11.679688 17.78125 L 14.855469 17.78125 L 14.855469 14.359375 C 14.855469 14.359375 25.945312 14.359375 27.488281 14.359375 C 29.03125 14.355469 29.515625 14.984375 29.515625 16.207031 C 29.515625 17.105469 29.515625 20.863281 29.515625 20.863281 L 4.09375 20.863281 C 4.09375 19.339844 4.09375 12.886719 4.09375 11.78125 C 4.09375 10.335938 4.722656 10.1875 5.730469 11.222656 Z M 5.730469 11.222656 " fill-opacity="1" fill-rule="nonzero"/></g><g clip-path="url(#6e92b4380d)"><path fill="#003366" d="M 1.714844 9.53125 C 2.398438 9.53125 2.949219 10.082031 2.949219 10.765625 L 2.949219 21.796875 L 29.515625 21.796875 L 29.515625 27.582031 L 27.050781 27.582031 L 27.050781 24.183594 L 2.949219 24.183594 L 2.949219 27.582031 L 0.484375 27.582031 L 0.484375 10.765625 C 0.484375 10.082031 1.035156 9.53125 1.714844 9.53125 Z M 1.714844 9.53125 " fill-opacity="1" fill-rule="nonzero"/></g><path fill="#003366" d="M 14.082031 17.007812 L 12.03125 17.007812 C 11.253906 16.113281 8.65625 13.152344 6.519531 10.929688 C 7.199219 10.164062 8.574219 9.132812 10.292969 10.554688 C 12.101562 12.046875 13.351562 13.09375 14.082031 13.707031 Z M 14.082031 17.007812 " fill-opacity="1" fill-rule="nonzero"/><path fill="#003366" d="M 3.511719 7.023438 C 3.511719 7.359375 3.574219 7.675781 3.703125 7.984375 C 3.832031 8.292969 4.011719 8.5625 4.246094 8.796875 C 4.480469 9.035156 4.753906 9.214844 5.058594 9.339844 C 5.367188 9.46875 5.6875 9.53125 6.019531 9.53125 C 6.351562 9.53125 6.671875 9.46875 6.980469 9.339844 C 7.285156 9.214844 7.558594 9.035156 7.792969 8.796875 C 8.027344 8.5625 8.210938 8.292969 8.335938 7.984375 C 8.464844 7.675781 8.527344 7.359375 8.527344 7.023438 C 8.527344 6.691406 8.464844 6.371094 8.335938 6.066406 C 8.210938 5.757812 8.027344 5.488281 7.792969 5.25 C 7.558594 5.015625 7.285156 4.835938 6.980469 4.707031 C 6.671875 4.582031 6.351562 4.515625 6.019531 4.515625 C 5.6875 4.515625 5.367188 4.582031 5.058594 4.707031 C 4.753906 4.835938 4.480469 5.015625 4.246094 5.25 C 4.011719 5.488281 3.832031 5.757812 3.703125 6.066406 C 3.574219 6.371094 3.511719 6.691406 3.511719 7.023438 Z M 3.511719 7.023438 " fill-opacity="1" fill-rule="nonzero"/><g clip-path="url(#498ded3b21)"><path fill="#003366" d="M 18.851562 1.40625 L 26.183594 1.40625 C 26.683594 1.40625 27.089844 1.8125 27.089844 2.3125 L 27.089844 9.644531 C 27.089844 10.144531 26.683594 10.554688 26.183594 10.554688 L 18.851562 10.554688 C 18.351562 10.554688 17.945312 10.144531 17.945312 9.644531 L 17.945312 2.3125 C 17.945312 1.8125 18.351562 1.40625 18.851562 1.40625 Z M 19.796875 6.84375 L 21.652344 6.84375 L 21.652344 8.703125 L 23.382812 8.703125 L 23.382812 6.84375 L 25.238281 6.84375 L 25.238281 5.113281 L 23.382812 5.113281 L 23.382812 3.257812 L 21.652344 3.257812 L 21.652344 5.113281 L 19.796875 5.113281 Z M 19.796875 6.84375 " fill-opacity="1" fill-rule="nonzero"/></g></svg>