<svg xmlns="http://www.w3.org/2000/svg" xmlns:xlink="http://www.w3.org/1999/xlink" width="40" zoomAndPan="magnify" viewBox="0 0 30 30.000001" height="40" preserveAspectRatio="xMidYMid meet" version="1.0"><defs><clipPath id="805e4b4265"><path d="M 0.484375 7 L 19 7 L 19 29.03125 L 0.484375 29.03125 Z M 0.484375 7 " clip-rule="nonzero"/></clipPath><clipPath id="5b32f6de63"><path d="M 13 0 L 29.515625 0 L 29.515625 29.03125 L 13 29.03125 Z M 13 0 " clip-rule="nonzero"/></clipPath></defs><g clip-path="url(#805e4b4265)"><path fill="#003366" d="M 11.214844 8.835938 C 5.984375 8.835938 1.746094 13.074219 1.746094 18.304688 C 1.746094 23.53125 5.984375 27.769531 11.214844 27.769531 C 13.613281 27.769531 15.804688 26.875 17.476562 25.402344 C 17.738281 25.171875 18.136719 25.199219 18.367188 25.457031 C 18.597656 25.71875 18.570312 26.117188 18.308594 26.351562 C 16.417969 28.019531 13.933594 29.03125 11.214844 29.03125 C 5.289062 29.03125 0.484375 24.230469 0.484375 18.304688 C 0.484375 12.378906 5.289062 7.574219 11.214844 7.574219 C 12.847656 7.574219 14.398438 7.9375 15.785156 8.59375 C 16.101562 8.742188 16.234375 9.117188 16.085938 9.433594 C 15.9375 9.75 15.5625 9.882812 15.246094 9.734375 C 14.023438 9.160156 12.65625 8.835938 11.214844 8.835938 Z M 11.214844 8.835938 " fill-opacity="1" fill-rule="evenodd"/></g><path fill="#003366" d="M 11.214844 11.359375 C 7.378906 11.359375 4.269531 14.46875 4.269531 18.304688 C 4.269531 22.136719 7.378906 25.246094 11.214844 25.246094 C 13.78125 25.246094 16.027344 23.851562 17.226562 21.773438 C 17.402344 21.472656 17.789062 21.367188 18.089844 21.542969 C 18.390625 21.71875 18.496094 22.105469 18.320312 22.40625 C 16.902344 24.855469 14.25 26.507812 11.214844 26.507812 C 6.683594 26.507812 3.007812 22.835938 3.007812 18.304688 C 3.007812 13.773438 6.683594 10.097656 11.214844 10.097656 C 12.171875 10.097656 13.09375 10.261719 13.949219 10.566406 C 14.277344 10.679688 14.449219 11.042969 14.332031 11.371094 C 14.214844 11.699219 13.855469 11.871094 13.527344 11.753906 C 12.804688 11.5 12.027344 11.359375 11.214844 11.359375 Z M 11.214844 11.359375 " fill-opacity="1" fill-rule="evenodd"/><path fill="#003366" d="M 9.800781 14.515625 C 10.691406 14.070312 11.734375 14.070312 12.625 14.515625 L 14.019531 15.214844 C 14.332031 15.371094 14.457031 15.75 14.300781 16.0625 C 14.144531 16.371094 13.765625 16.5 13.457031 16.34375 L 12.058594 15.644531 C 11.527344 15.378906 10.898438 15.378906 10.367188 15.644531 L 9.832031 15.910156 C 9.519531 16.070312 9.320312 16.390625 9.320312 16.742188 C 9.320312 17.257812 9.734375 17.671875 10.25 17.671875 L 12.175781 17.671875 C 13.386719 17.671875 14.367188 18.652344 14.367188 19.863281 C 14.367188 20.691406 13.898438 21.453125 13.15625 21.824219 L 12.625 22.089844 C 11.734375 22.535156 10.691406 22.535156 9.800781 22.089844 L 8.40625 21.390625 C 8.09375 21.234375 7.96875 20.855469 8.125 20.546875 C 8.28125 20.234375 8.660156 20.105469 8.972656 20.261719 L 10.367188 20.960938 C 10.898438 21.226562 11.527344 21.226562 12.058594 20.960938 L 12.59375 20.695312 C 12.90625 20.535156 13.105469 20.214844 13.105469 19.863281 C 13.105469 19.351562 12.691406 18.933594 12.175781 18.933594 L 10.25 18.933594 C 9.039062 18.933594 8.058594 17.953125 8.058594 16.742188 C 8.058594 15.914062 8.527344 15.152344 9.269531 14.78125 Z M 9.800781 14.515625 " fill-opacity="1" fill-rule="evenodd"/><path fill="#003366" d="M 11.214844 12.621094 C 11.5625 12.621094 11.84375 12.90625 11.84375 13.253906 L 11.84375 23.351562 C 11.84375 23.699219 11.5625 23.984375 11.214844 23.984375 C 10.863281 23.984375 10.582031 23.699219 10.582031 23.351562 L 10.582031 13.253906 C 10.582031 12.90625 10.863281 12.621094 11.214844 12.621094 Z M 11.214844 12.621094 " fill-opacity="1" fill-rule="evenodd"/><g clip-path="url(#5b32f6de63)"><path fill="#003366" d="M 21.3125 0 C 21.523438 0 21.71875 0.105469 21.835938 0.28125 L 29.410156 11.640625 C 29.539062 11.835938 29.550781 12.085938 29.441406 12.289062 C 29.332031 12.496094 29.117188 12.621094 28.886719 12.621094 L 25.386719 12.621094 L 25.386719 28.402344 C 25.386719 28.75 25.101562 29.03125 24.753906 29.03125 L 17.996094 29.03125 C 17.648438 29.03125 17.367188 28.75 17.367188 28.402344 L 17.367188 12.621094 L 13.738281 12.621094 C 13.503906 12.621094 13.292969 12.496094 13.179688 12.289062 C 13.070312 12.085938 13.082031 11.835938 13.210938 11.640625 L 20.785156 0.28125 C 20.902344 0.105469 21.101562 0 21.3125 0 Z M 14.917969 11.359375 L 17.996094 11.359375 C 18.347656 11.359375 18.628906 11.644531 18.628906 11.992188 L 18.628906 27.769531 L 24.121094 27.769531 L 24.121094 11.992188 C 24.121094 11.644531 24.40625 11.359375 24.753906 11.359375 L 27.707031 11.359375 L 21.3125 1.769531 Z M 14.917969 11.359375 " fill-opacity="1" fill-rule="evenodd"/></g></svg>