<svg xmlns="http://www.w3.org/2000/svg" xmlns:xlink="http://www.w3.org/1999/xlink" width="40" zoomAndPan="magnify" viewBox="0 0 30 30.000001" height="40" preserveAspectRatio="xMidYMid meet" version="1.0"><defs><clipPath id="62dc1b2d74"><path d="M 0.484375 21 L 7 21 L 7 27.242188 L 0.484375 27.242188 Z M 0.484375 21 " clip-rule="nonzero"/></clipPath><clipPath id="400725c5ea"><path d="M 4 1.839844 L 29.515625 1.839844 L 29.515625 23 L 4 23 Z M 4 1.839844 " clip-rule="nonzero"/></clipPath></defs><path fill="#003366" d="M 20.371094 10.515625 C 20.179688 10.414062 20.117188 10.167969 20.246094 9.992188 L 21.847656 7.820312 C 22.113281 7.460938 21.855469 6.953125 21.410156 6.953125 L 15.097656 6.953125 C 14.652344 6.953125 14.394531 7.457031 14.660156 7.820312 L 16.261719 9.992188 C 16.390625 10.167969 16.328125 10.414062 16.136719 10.515625 C 14.554688 11.332031 13.503906 13.035156 13.640625 14.964844 C 13.804688 17.285156 15.710938 19.140625 18.035156 19.25 C 20.6875 19.371094 22.878906 17.257812 22.878906 14.628906 C 22.878906 12.839844 21.859375 11.285156 20.371094 10.515625 Z M 17.734375 13.917969 C 17.839844 14 18.074219 14.097656 18.4375 14.21875 C 18.761719 14.328125 19.015625 14.433594 19.199219 14.535156 C 19.382812 14.640625 19.53125 14.785156 19.644531 14.976562 C 19.761719 15.164062 19.816406 15.382812 19.816406 15.632812 C 19.816406 15.960938 19.714844 16.253906 19.511719 16.519531 C 19.421875 16.632812 19.304688 16.730469 19.167969 16.808594 C 19.042969 16.875 18.898438 16.929688 18.730469 16.964844 C 18.71875 16.96875 18.703125 16.972656 18.6875 16.976562 L 18.6875 17.582031 L 17.816406 17.582031 L 17.816406 16.980469 C 17.800781 16.976562 17.78125 16.972656 17.761719 16.96875 C 17.207031 16.847656 16.84375 16.507812 16.667969 15.9375 L 17.484375 15.621094 C 17.496094 15.65625 17.511719 15.691406 17.523438 15.722656 C 17.65625 16.023438 17.953125 16.222656 18.273438 16.222656 C 18.273438 16.222656 18.320312 16.222656 18.378906 16.21875 C 18.433594 16.210938 18.5 16.203125 18.539062 16.195312 C 18.636719 16.171875 18.714844 16.128906 18.773438 16.066406 C 18.875 15.964844 18.929688 15.839844 18.929688 15.691406 C 18.929688 15.535156 18.875 15.417969 18.773438 15.34375 C 18.667969 15.261719 18.433594 15.164062 18.070312 15.039062 C 17.746094 14.933594 17.488281 14.828125 17.308594 14.722656 C 17.125 14.621094 16.976562 14.472656 16.859375 14.285156 C 16.746094 14.097656 16.6875 13.878906 16.6875 13.628906 C 16.6875 13.300781 16.789062 13.007812 16.992188 12.742188 C 17.085938 12.628906 17.199219 12.53125 17.335938 12.453125 C 17.460938 12.382812 17.609375 12.332031 17.773438 12.296875 C 17.789062 12.292969 17.804688 12.289062 17.816406 12.285156 L 17.816406 11.679688 L 18.683594 11.679688 L 18.683594 12.285156 C 18.703125 12.289062 18.722656 12.292969 18.742188 12.296875 C 19.296875 12.414062 19.660156 12.757812 19.835938 13.328125 L 19.019531 13.644531 C 19.003906 13.597656 18.984375 13.558594 18.96875 13.519531 C 18.835938 13.226562 18.546875 13.042969 18.230469 13.042969 C 18.230469 13.042969 18.183594 13.042969 18.128906 13.046875 C 18.070312 13.050781 18.003906 13.058594 17.964844 13.070312 C 17.867188 13.09375 17.789062 13.136719 17.730469 13.199219 C 17.628906 13.300781 17.574219 13.425781 17.574219 13.574219 C 17.578125 13.722656 17.632812 13.84375 17.734375 13.917969 Z M 17.734375 13.917969 " fill-opacity="1" fill-rule="nonzero"/><path fill="#003366" d="M 22.453125 21.609375 C 22.074219 21.421875 21.675781 21.429688 21.273438 21.488281 C 20.542969 21.597656 19.859375 21.863281 19.242188 22.257812 C 18.503906 22.726562 17.710938 22.785156 16.898438 22.65625 C 16.238281 22.554688 15.585938 22.375 14.9375 22.203125 C 14.605469 22.113281 14.289062 21.976562 13.964844 21.859375 C 13.941406 21.851562 13.929688 21.828125 13.933594 21.804688 C 13.9375 21.78125 13.960938 21.765625 13.984375 21.765625 C 14.140625 21.777344 14.296875 21.78125 14.449219 21.808594 C 15.046875 21.910156 15.640625 22.058594 16.242188 22.117188 C 16.605469 22.152344 16.996094 22.121094 17.339844 22.007812 C 17.917969 21.8125 18.003906 21.113281 17.496094 20.777344 C 17.242188 20.609375 16.925781 20.503906 16.621094 20.449219 C 15.5 20.253906 14.421875 19.960938 13.410156 19.414062 C 12.339844 18.832031 11.1875 18.488281 9.960938 18.777344 C 9.230469 18.953125 8.515625 19.210938 7.820312 19.503906 C 6.972656 19.859375 6.226562 20.308594 5.382812 20.714844 L 7.328125 24.199219 C 8.457031 23.679688 9.609375 23.617188 10.785156 23.921875 C 11.5625 24.125 12.339844 24.332031 13.109375 24.554688 C 15.289062 25.1875 17.429688 25.125 19.511719 24.191406 C 20.507812 23.746094 21.46875 23.226562 22.449219 22.746094 C 22.679688 22.632812 22.878906 22.5 22.878906 22.214844 C 22.882812 21.914062 22.703125 21.730469 22.453125 21.609375 Z M 22.453125 21.609375 " fill-opacity="1" fill-rule="nonzero"/><g clip-path="url(#62dc1b2d74)"><path fill="#003366" d="M 4.152344 21.644531 C 4.054688 21.46875 3.828125 21.40625 3.652344 21.507812 L 0.839844 23.125 C 0.574219 23.277344 0.480469 23.617188 0.636719 23.882812 C 1.105469 24.695312 2.027344 26.292969 2.328125 26.789062 C 2.441406 26.976562 2.628906 27.121094 2.847656 27.152344 C 3.007812 27.175781 3.171875 27.148438 3.324219 27.0625 L 5.644531 25.726562 C 6 25.523438 6.125 25.070312 5.917969 24.710938 Z M 4.660156 25.457031 C 4.535156 25.917969 4.0625 26.191406 3.601562 26.066406 C 3.140625 25.945312 2.867188 25.46875 2.992188 25.007812 C 3.117188 24.550781 3.589844 24.277344 4.050781 24.402344 C 4.511719 24.527344 4.78125 25 4.660156 25.457031 Z M 4.660156 25.457031 " fill-opacity="1" fill-rule="nonzero"/></g><g clip-path="url(#400725c5ea)"><path fill="#003366" d="M 18.253906 1.839844 C 12.402344 1.839844 7.582031 6.324219 7.042969 12.035156 L 4.953125 12.035156 C 4.722656 12.035156 4.582031 12.296875 4.71875 12.492188 L 7.535156 16.554688 L 7.640625 16.710938 C 7.753906 16.878906 8.003906 16.878906 8.117188 16.710938 L 9.015625 15.417969 L 11.039062 12.492188 C 11.175781 12.296875 11.035156 12.035156 10.804688 12.035156 L 8.792969 12.035156 C 9.324219 7.285156 13.363281 3.582031 18.253906 3.582031 C 23.503906 3.582031 27.777344 7.851562 27.777344 13.101562 C 27.777344 16.230469 26.261719 19.011719 23.925781 20.75 C 24.28125 21.152344 24.476562 21.660156 24.472656 22.222656 C 24.46875 22.308594 24.464844 22.402344 24.449219 22.503906 C 27.5 20.484375 29.515625 17.023438 29.515625 13.105469 C 29.515625 6.894531 24.464844 1.839844 18.253906 1.839844 Z M 18.253906 1.839844 " fill-opacity="1" fill-rule="nonzero"/></g></svg>