<svg xmlns="http://www.w3.org/2000/svg" xmlns:xlink="http://www.w3.org/1999/xlink" width="40" zoomAndPan="magnify" viewBox="0 0 30 30.000001" height="40" preserveAspectRatio="xMidYMid meet" version="1.0"><defs><clipPath id="360ed05a7a"><path d="M 0.894531 0.144531 L 26 0.144531 L 26 29 L 0.894531 29 Z M 0.894531 0.144531 " clip-rule="nonzero"/></clipPath><clipPath id="ca97b7c0fa"><path d="M 26 12 L 29.199219 12 L 29.199219 18 L 26 18 Z M 26 12 " clip-rule="nonzero"/></clipPath></defs><g clip-path="url(#360ed05a7a)"><path fill="#003366" d="M 22.335938 0.242188 C 22.078125 0.320312 21.691406 0.71875 21.605469 1 C 21.503906 1.335938 21.523438 1.472656 21.707031 1.988281 C 21.804688 2.242188 21.875 2.457031 21.875 2.464844 C 21.875 2.476562 21.628906 2.359375 21.332031 2.207031 C 19.886719 1.488281 18.425781 1.042969 16.742188 0.824219 C 15.878906 0.710938 14.183594 0.710938 13.273438 0.824219 C 9.144531 1.335938 5.445312 3.667969 3.140625 7.207031 C 2.070312 8.847656 1.363281 10.746094 1.035156 12.828125 C 0.914062 13.644531 0.894531 15.910156 1.007812 16.679688 C 1.492188 19.894531 2.789062 22.53125 5 24.761719 C 7.167969 26.960938 9.917969 28.355469 12.992188 28.820312 C 14.335938 29.023438 16.699219 28.980469 17.242188 28.738281 C 17.644531 28.5625 17.941406 28.015625 17.863281 27.601562 C 17.804688 27.296875 17.53125 26.914062 17.289062 26.796875 C 17.046875 26.679688 16.980469 26.675781 15.523438 26.742188 C 12.222656 26.886719 9.132812 25.71875 6.757812 23.425781 C 5.675781 22.375 4.988281 21.433594 4.332031 20.109375 C 3.4375 18.316406 3.050781 16.480469 3.117188 14.433594 C 3.21875 11.367188 4.410156 8.605469 6.558594 6.441406 C 8.140625 4.851562 10.054688 3.769531 12.234375 3.238281 C 13.101562 3.027344 13.964844 2.933594 15.0625 2.933594 C 16.953125 2.933594 18.65625 3.316406 20.183594 4.085938 L 20.660156 4.320312 L 20.441406 4.394531 C 20.324219 4.433594 20.117188 4.570312 19.980469 4.691406 C 19.199219 5.414062 19.707031 6.699219 20.769531 6.699219 C 21.140625 6.699219 24.40625 5.6875 24.660156 5.496094 C 24.945312 5.277344 25.089844 4.953125 25.089844 4.546875 C 25.089844 4.261719 25.007812 3.992188 24.433594 2.484375 C 23.726562 0.621094 23.652344 0.492188 23.195312 0.285156 C 22.957031 0.171875 22.628906 0.15625 22.335938 0.242188 Z M 22.335938 0.242188 " fill-opacity="1" fill-rule="nonzero"/></g><path fill="#003366" d="M 25.460938 6.8125 C 25.074219 7.019531 24.804688 7.558594 24.882812 7.953125 C 24.90625 8.054688 25.074219 8.398438 25.265625 8.71875 C 25.453125 9.042969 25.710938 9.539062 25.84375 9.816406 C 26.097656 10.367188 26.285156 10.578125 26.609375 10.714844 C 26.886719 10.832031 27.136719 10.828125 27.414062 10.695312 C 27.851562 10.496094 28.058594 10.164062 28.058594 9.664062 C 28.058594 9.421875 28 9.253906 27.671875 8.589844 C 27.109375 7.449219 26.785156 6.96875 26.476562 6.824219 C 26.160156 6.667969 25.742188 6.667969 25.460938 6.8125 Z M 25.460938 6.8125 " fill-opacity="1" fill-rule="nonzero"/><path fill="#003366" d="M 13.589844 8.078125 C 13.324219 8.171875 13.0625 8.410156 12.960938 8.652344 C 12.898438 8.796875 12.882812 9.550781 12.882812 12.769531 C 12.882812 17.066406 12.871094 16.914062 13.207031 17.230469 C 13.3125 17.332031 14.359375 17.824219 16.121094 18.601562 C 18.507812 19.652344 18.90625 19.808594 19.15625 19.816406 C 20.128906 19.820312 20.601562 18.636719 19.890625 17.960938 C 19.769531 17.835938 19.015625 17.476562 17.40625 16.773438 L 15.101562 15.761719 L 15.074219 12.28125 C 15.046875 8.472656 15.0625 8.660156 14.695312 8.320312 C 14.375 8.015625 14 7.929688 13.589844 8.078125 Z M 13.589844 8.078125 " fill-opacity="1" fill-rule="nonzero"/><g clip-path="url(#ca97b7c0fa)"><path fill="#003366" d="M 27.582031 12.933594 C 27.324219 13.050781 27.082031 13.292969 27.003906 13.507812 C 26.96875 13.585938 26.9375 14.285156 26.925781 15.058594 L 26.90625 16.46875 L 27.078125 16.710938 C 27.300781 17.03125 27.609375 17.183594 28.015625 17.183594 C 28.4375 17.179688 28.757812 16.972656 28.960938 16.566406 C 29.101562 16.289062 29.101562 16.261719 29.101562 14.964844 C 29.101562 13.675781 29.09375 13.636719 28.964844 13.40625 C 28.671875 12.894531 28.09375 12.699219 27.582031 12.933594 Z M 27.582031 12.933594 " fill-opacity="1" fill-rule="nonzero"/></g><path fill="#003366" d="M 26.429688 19.296875 C 26.1875 19.394531 25.972656 19.640625 25.742188 20.109375 C 25.621094 20.355469 25.339844 20.859375 25.113281 21.230469 C 24.742188 21.851562 24.714844 21.929688 24.714844 22.214844 C 24.722656 22.800781 25.121094 23.234375 25.699219 23.273438 C 26.226562 23.3125 26.480469 23.160156 26.867188 22.558594 C 27.042969 22.292969 27.355469 21.738281 27.570312 21.320312 C 27.941406 20.597656 27.957031 20.550781 27.9375 20.242188 C 27.890625 19.640625 27.457031 19.230469 26.875 19.242188 C 26.707031 19.242188 26.507812 19.269531 26.429688 19.296875 Z M 26.429688 19.296875 " fill-opacity="1" fill-rule="nonzero"/><path fill="#003366" d="M 22.476562 24.296875 C 22.394531 24.324219 22.101562 24.492188 21.832031 24.679688 C 21.5625 24.863281 21.101562 25.144531 20.808594 25.308594 C 20.179688 25.652344 20.097656 25.71875 19.957031 25.992188 C 19.773438 26.355469 19.851562 26.9375 20.121094 27.234375 C 20.296875 27.433594 20.621094 27.554688 20.941406 27.554688 C 21.3125 27.554688 21.753906 27.34375 22.835938 26.628906 C 23.589844 26.132812 23.738281 25.984375 23.84375 25.601562 C 24.050781 24.8125 23.265625 24.058594 22.476562 24.296875 Z M 22.476562 24.296875 " fill-opacity="1" fill-rule="nonzero"/></svg>